FFmpeg version SVN-r25716, Copyright (c) 2000-2010 the FFmpeg developers  built on Nov 10 2010 12:23:18 with gcc 4.1.2 20080704 (Red Hat 4.1.2-48)  configuration: --enable-libmp3lame --enable-shared --disable-mmx --arch=x86_64  libavutil     50.33. 0 / 50.33. 0  libavcore      0.12. 1 /  0.12. 1  libavcodec    52.94. 4 / 52.94. 4  libavformat   52.84. 0 / 52.84. 0  libavdevice   52. 2. 2 / 52. 2. 2  libavfilter    1.59. 0 /  1.59. 0  libswscale     0.12. 0 /  0.12. 0Input #0, avi, from '/RAID10/data/converted_video_files/11954.avi':  Duration: 00:00:56.38, start: 0.000000, bitrate: 9245 kb/s    Stream #0.0: Video: mpeg4, yuv420p, 720x480 [PAR 1:1 DAR 3:2], 25 tbr, 29.97 tbn, 25 tbc    Stream #0.1: Audio: pcm_s16le, 48000 Hz, 2 channels, s16, 1536 kb/s[buffer @ 0x18db6c80] w:720 h:480 pixfmt:yuv420pOutput #0, flv, to '/RAID10/data/converted_video_files/11954.flv':  Metadata:    encoder         : Lavf52.84.0    Stream #0.0: Video: flv, yuv420p, 720x480 [PAR 1:1 DAR 3:2], q=2-31, 600 kb/s, 1k tbn, 24 tbc    Stream #0.1: Audio: libmp3lame, 22050 Hz, 2 channels, s16, 96 kb/sStream mapping:  Stream #0.0 -> #0.0  Stream #0.1 -> #0.1Press [q] to stop encodingframe=   23 fps=  0 q=8.6 size=     202kB time=1.00 bitrate=1656.3kbits/s dup=0 drop=5    frame=   55 fps= 53 q=11.8 size=     341kB time=2.33 bitrate=1198.1kbits/s dup=0 drop=13    frame=   92 fps= 59 q=15.2 size=     521kB time=3.87 bitrate=1102.7kbits/s dup=0 drop=23    frame=  132 fps= 64 q=11.0 size=     660kB time=5.54 bitrate= 975.4kbits/s dup=0 drop=33    frame=  172 fps= 67 q=13.3 size=     805kB time=7.21 bitrate= 915.0kbits/s dup=0 drop=43    frame=  211 fps= 69 q=17.7 size=     939kB time=8.83 bitrate= 871.1kbits/s dup=0 drop=52    frame=  243 fps= 68 q=12.7 size=    1052kB time=10.17 bitrate= 847.3kbits/s dup=0 drop=60    frame=  280 fps= 69 q=13.5 size=    1190kB time=11.71 bitrate= 832.8kbits/s dup=0 drop=69    frame=  320 fps= 70 q=13.5 size=    1325kB time=13.37 bitrate= 811.3kbits/s dup=0 drop=80    frame=  355 fps= 70 q=12.3 size=    1451kB time=14.83 bitrate= 801.3kbits/s dup=0 drop=88    frame=  384 fps= 69 q=13.1 size=    1560kB time=16.04 bitrate= 796.6kbits/s dup=0 drop=95    frame=  409 fps= 67 q=13.5 size=    1644kB time=17.08 bitrate= 788.5kbits/s dup=0 drop=101    frame=  441 fps= 67 q=11.6 size=    1750kB time=18.42 bitrate= 778.6kbits/s dup=0 drop=109    frame=  482 fps= 68 q=12.4 size=    1897kB time=20.12 bitrate= 772.2kbits/s dup=0 drop=120    frame=  513 fps= 67 q=17.6 size=    2047kB time=21.42 bitrate= 783.1kbits/s dup=0 drop=127    frame=  545 fps= 67 q=15.9 size=    2173kB time=22.75 bitrate= 782.7kbits/s dup=0 drop=135    frame=  586 fps= 68 q=16.8 size=    2305kB time=24.46 bitrate= 772.1kbits/s dup=0 drop=146    frame=  607 fps= 66 q=18.1 size=    2397kB time=25.33 bitrate= 775.1kbits/s dup=0 drop=151    frame=  638 fps= 66 q=18.0 size=    2509kB time=26.62 bitrate= 771.9kbits/s dup=0 drop=158    frame=  671 fps= 66 q=11.9 size=    2602kB time=28.00 bitrate= 761.4kbits/s dup=0 drop=167    frame=  714 fps= 67 q=10.9 size=    2731kB time=29.79 bitrate= 750.8kbits/s dup=0 drop=177    frame=  757 fps= 68 q=11.7 size=    2874kB time=31.58 bitrate= 745.4kbits/s dup=0 drop=188    frame=  794 fps= 68 q=10.8 size=    2992kB time=33.12 bitrate= 739.9kbits/s dup=0 drop=198    frame=  836 fps= 69 q=12.9 size=    3146kB time=34.87 bitrate= 739.0kbits/s dup=0 drop=208    frame=  877 fps= 69 q=15.9 size=    3291kB time=36.58 bitrate= 736.9kbits/s dup=0 drop=218    frame=  915 fps= 69 q=14.0 size=    3446kB time=38.17 bitrate= 739.6kbits/s dup=0 drop=227    frame=  956 fps= 70 q=14.2 size=    3600kB time=39.87 bitrate= 739.6kbits/s dup=0 drop=238    frame=  991 fps= 70 q=13.9 size=    3728kB time=41.33 bitrate= 738.9kbits/s dup=0 drop=246    frame= 1026 fps= 70 q=14.6 size=    3854kB time=42.79 bitrate= 737.8kbits/s dup=0 drop=255    frame= 1065 fps= 70 q=15.9 size=    3996kB time=44.42 bitrate= 736.9kbits/s dup=0 drop=265    frame= 1100 fps= 70 q=14.6 size=    4121kB time=45.87 bitrate= 736.0kbits/s dup=0 drop=273    frame= 1140 fps= 70 q=15.0 size=    4260kB time=47.54 bitrate= 734.1kbits/s dup=0 drop=283    frame= 1179 fps= 71 q=16.1 size=    4402kB time=49.17 bitrate= 733.4kbits/s dup=0 drop=293    frame= 1221 fps= 71 q=14.9 size=    4552kB time=50.92 bitrate= 732.3kbits/s dup=0 drop=303    frame= 1251 fps= 70 q=26.0 size=    4665kB time=52.17 bitrate= 732.6kbits/s dup=0 drop=311    frame= 1276 fps= 70 q=12.5 size=    4756kB time=53.21 bitrate= 732.2kbits/s dup=0 drop=317    frame= 1314 fps= 70 q=14.9 size=    4883kB time=54.79 bitrate= 730.1kbits/s dup=0 drop=327    frame= 1354 fps= 70 q=14.3 Lsize=    5018kB time=56.45 bitrate= 728.2kbits/s dup=0 drop=336    video:4301kB audio:662kB global headers:0kB muxing overhead 1.113006%